<svg xmlns="http://www.w3.org/2000/svg" width="185.839" height="46.049" viewBox="0 0 185.839 46.049">
    <defs>
        <clipPath id="prefix__clip-path">
            <path id="prefix__Rectangle_21" d="M0 0H185.839V46.049H0z" data-name="Rectangle 21" transform="translate(.288)" style="fill:#fff"/>
        </clipPath>
    </defs>
    <g id="prefix__clockify-logo-blue" transform="translate(-.288)">
        <path id="prefix__Rectangle_20" d="M0 0H185.839V46.049H0z" data-name="Rectangle 20" transform="translate(.288)" style="fill:transparent"/>
        <path id="prefix__Path_52" d="M79.449 37.582l7.862-7.86 2.25 2.248-7.861 7.86zm-3.185 8.032a2.8 2.8 0 1 1 2.785-2.8 2.79 2.79 0 0 1-2.786 2.8zM89.6 53.733l-2.25 2.25-7.862-7.86 2.25-2.25z" data-name="Path 52" transform="translate(-59.185 -23.961)" style="fill-rule:evenodd;fill:#222"/>
        <path id="prefix__Path_53" d="M173.918 40.467a9.062 9.062 0 0 1-3.109 3.863 7.651 7.651 0 0 1-4.476 1.414 9.075 9.075 0 0 1-6.219-2.5l2.4-4.287a4.972 4.972 0 0 0 3.417 1.556 3.631 3.631 0 0 0 2.874-1.273 4.15 4.15 0 0 0 1.108-2.778q0-.661-10.131-25.77h5.654l7.492 18.466 7.493-18.466h5.654zM154.477 4.71a3.343 3.343 0 0 0-2.638 1.06 4.129 4.129 0 0 0-.943 2.851v2.073h6.6v4.24h-6.6v20.823h-5.277V14.934h-3.156v-4.24h3.156V8.762A8.4 8.4 0 0 1 148 2.473 7.9 7.9 0 0 1 153.747.14a9 9 0 0 1 6.149 2.5l-2.168 3.721a4.5 4.5 0 0 0-3.251-1.651zm-20.213 1.979a3.224 3.224 0 0 1-2.357-.989 3.217 3.217 0 0 1-.989-2.355 3.217 3.217 0 0 1 .989-2.355 3.3 3.3 0 0 1 4.713 0 3.217 3.217 0 0 1 .989 2.355 3.217 3.217 0 0 1-.989 2.355 3.22 3.22 0 0 1-2.356.989zm-13.693 29.068l-7.445-10.978-3.817 3.863v7.115h-5.278V.8h5.278v20.54l10.179-10.646h6.784l-9.518 9.939 10.225 15.124zm-29.28-4.43a7.8 7.8 0 0 0 3.619-.916l3.369 3.37a13.862 13.862 0 0 1-7.814 2.352 12.656 12.656 0 0 1-9-3.557 12.2 12.2 0 0 1-3.77-9.3 12.1 12.1 0 0 1 3.934-9.352 13.68 13.68 0 0 1 9.588-3.6 13.214 13.214 0 0 1 6.863 1.8l-3.771 3.77a8.344 8.344 0 0 0-8.91 1.522 7.264 7.264 0 0 0-2.426 5.653 8.2 8.2 0 0 0 8.317 8.267zm-31.028 4.806a12.836 12.836 0 0 1-9.424-3.745 12.421 12.421 0 0 1-3.77-9.164 12.417 12.417 0 0 1 3.77-9.162 12.83 12.83 0 0 1 9.424-3.747 12.831 12.831 0 0 1 9.424 3.747 12.417 12.417 0 0 1 3.77 9.162 12.421 12.421 0 0 1-3.77 9.164 12.836 12.836 0 0 1-9.424 3.745zm5.678-18.821a8.2 8.2 0 0 0-11.355 0 8.086 8.086 0 0 0-2.239 5.912 8.081 8.081 0 0 0 2.239 5.912 8.2 8.2 0 0 0 11.355 0 8.093 8.093 0 0 0 2.237-5.912 8.1 8.1 0 0 0-2.236-5.911zM36.3.8h5.28v34.957H36.3zM17.108 30.947a11.875 11.875 0 0 0 4.478-.878l3.84 3.841a17.1 17.1 0 1 1-.073-29.929l-3.776 3.777a12.018 12.018 0 1 0-4.469 23.189zm119.748 4.809h-5.278V10.694h5.278z" data-name="Path 53" transform="translate(.051)" style="fill:#03a9f4;fill-rule:evenodd"/>
    </g>
</svg>
